<svg width="197" height="100" viewBox="0 0 197 100" fill="none" xmlns="http://www.w3.org/2000/svg">
<path d="M112.067 0H135.698L196.565 100H172.934L112.067 0Z" fill="white"/>
<path d="M92.7329 47.2727C92.7329 36.1622 84.1399 20.4084 60.151 20.4084H20.7664V80.2014C20.7664 80.2014 39.7427 80.2014 60.151 80.2014C97.3874 80.2014 124.599 61.9413 140.352 61.9413C141.785 64.4476 150.736 79.4853 152.526 81.9916C132.117 81.9916 98.8196 98.4615 60.151 100C37.2364 100 0 100 0 100V0H60.151C94.4561 0 112.684 21.5316 116.121 40.6951L98.8196 68.7441L86.2881 69.8182C92.7329 63.0154 92.7329 55.2185 92.7329 47.2727Z" fill="white"/>
</svg>
